<svg id="Capa_1" enable-background="new 0 0 512 512" height="512" viewBox="0 0 512 512" width="512" xmlns="http://www.w3.org/2000/svg"><g><path d="m211 207.235c9.829-12.334 15-26.47 15-41.235l-30-15h-30-30l-30 15c0 14.766 5.171 28.901 15 41.235v97.529c-9.829 12.334-15 26.47-15 41.235l30 15h30 30l30-15c0-14.766-5.171-28.901-15-41.235z" fill="#59c36a"/><path d="m226 346c0-14.766-5.171-28.901-15-41.235v-97.529c9.829-12.334 15-26.47 15-41.235l-30-15h-30v210h30z" fill="#00a66c"/><g><g fill="#97de3d"><path d="m106 346c0 14.766 5.171 28.901 15 41.235v109.765c0 8.284 6.716 15 15 15h30 30c8.284 0 15-6.716 15-15v-109.765c9.829-12.334 15-26.47 15-41.235h-60z"/><path d="m226 166c0-14.766-5.171-28.901-15-41.235v-109.765c0-8.284-6.716-15-15-15h-30-30c-8.284 0-15 6.716-15 15v109.765c-9.712 12.202-15 26.426-15 41.235h60z"/></g></g><path d="m211 124.765v-109.765c0-8.284-6.716-15-15-15h-30v166h60c0-14.766-5.171-28.901-15-41.235z" fill="#59c36a"/><path d="m211 497v-109.765c9.829-12.334 15-26.47 15-41.235h-60v166h30c8.284 0 15-6.716 15-15z" fill="#59c36a"/><path d="m166 166h-15c-57.99 0-105-47.01-105-105v-15c0-8.284 6.716-15 15-15 57.99 0 105 47.01 105 105z" fill="#00a66c"/><path d="m391 207.235c9.829-12.334 15-26.47 15-41.235l-30-15h-30-30l-30 15c0 14.766 5.171 28.901 15 41.235v97.529c-9.829 12.334-15 26.47-15 41.235l30 15h30 30l30-15c0-14.766-5.171-28.901-15-41.235z" fill="#59c36a"/><path d="m406 346c0-14.766-5.171-28.901-15-41.235v-97.529c9.829-12.334 15-26.47 15-41.235l-30-15h-30v210h30z" fill="#00a66c"/><g><g fill="#97de3d"><path d="m286 346c0 14.766 5.171 28.901 15 41.235v109.765c0 8.284 6.716 15 15 15h30 30c8.284 0 15-6.716 15-15v-109.765c9.829-12.334 15-26.47 15-41.235h-60z"/><path d="m406 166c0-14.766-5.171-28.901-15-41.235v-109.765c0-8.284-6.716-15-15-15h-30-30c-8.284 0-15 6.716-15 15v109.765c-9.712 12.202-15 26.426-15 41.235h60z"/></g></g><path d="m391 124.765v-109.765c0-8.284-6.716-15-15-15h-30v166h60c0-14.766-5.171-28.901-15-41.235z" fill="#59c36a"/><path d="m391 497v-109.765c9.829-12.334 15-26.47 15-41.235h-60v166h30c8.284 0 15-6.716 15-15z" fill="#59c36a"/><path d="m346 346h15c57.99 0 105-47.01 105-105v-15c0-8.284-6.716-15-15-15-57.99 0-105 47.01-105 105z" fill="#97de3d"/></g></svg>